<?xml version="1.0" encoding="UTF-8"?>
<svg version="1.1" xmlns="http://www.w3.org/2000/svg" width="24" height="24">
<path d="M0 0 C0.83724609 -0.01224609 1.67449219 -0.02449219 2.53710938 -0.03710938 C3.73883789 -0.04000977 3.73883789 -0.04000977 4.96484375 -0.04296875 C5.70210693 -0.04707764 6.43937012 -0.05118652 7.19897461 -0.05541992 C9.0625 0.1875 9.0625 0.1875 11.0625 2.1875 C11.0625 3.1775 11.0625 4.1675 11.0625 5.1875 C12.0525 5.1875 13.0425 5.1875 14.0625 5.1875 C13.7325 6.8375 13.4025 8.4875 13.0625 10.1875 C12.4025 10.1875 11.7425 10.1875 11.0625 10.1875 C11.371875 11.095 11.68125 12.0025 12 12.9375 C12.350625 14.01 12.70125 15.0825 13.0625 16.1875 C13.35125 16.88875 13.64 17.59 13.9375 18.3125 C14.0625 20.1875 14.0625 20.1875 12.375 22.5 C10.0625 24.1875 10.0625 24.1875 8.125 24.0625 C6.71708891 23.46520439 5.32130349 22.83870164 3.9375 22.1875 C0.35237123 20.94049869 -3.05699022 20.70694524 -6.828125 20.43359375 C-8.9375 20.1875 -8.9375 20.1875 -9.9375 19.1875 C-10.0358721 17.85706375 -10.06828592 16.52156656 -10.0703125 15.1875 C-10.07160156 14.383125 -10.07289062 13.57875 -10.07421875 12.75 C-10.07035156 11.904375 -10.06648437 11.05875 -10.0625 10.1875 C-10.06636719 9.341875 -10.07023438 8.49625 -10.07421875 7.625 C-10.07292969 6.820625 -10.07164063 6.01625 -10.0703125 5.1875 C-10.06918457 4.445 -10.06805664 3.7025 -10.06689453 2.9375 C-9.71903685 -1.76711108 -3.55784746 0.00272632 0 0 Z M-7.9375 3.1875 C-7.9375 3.5175 -7.9375 3.8475 -7.9375 4.1875 C-2.3275 4.1875 3.2825 4.1875 9.0625 4.1875 C9.0625 3.8575 9.0625 3.5275 9.0625 3.1875 C7.16757254 2.99105616 5.27149097 2.80572712 3.375 2.625 C2.31925781 2.52058594 1.26351563 2.41617187 0.17578125 2.30859375 C-2.75176086 2.19472448 -5.10881144 2.47901585 -7.9375 3.1875 Z M-4.9375 5.1875 C-4.2775 6.8375 -3.6175 8.4875 -2.9375 10.1875 C-1.9475 10.1875 -0.9575 10.1875 0.0625 10.1875 C0.3925 9.1975 0.7225 8.2075 1.0625 7.1875 C2.3825 7.1875 3.7025 7.1875 5.0625 7.1875 C5.0625 6.5275 5.0625 5.8675 5.0625 5.1875 C1.7625 5.1875 -1.5375 5.1875 -4.9375 5.1875 Z M-7.9375 9.1875 C-7.9375 10.8375 -7.9375 12.4875 -7.9375 14.1875 C-6.6175 14.1875 -5.2975 14.1875 -3.9375 14.1875 C-3.9375 12.8675 -3.9375 11.5475 -3.9375 10.1875 C-5.2575 9.8575 -6.5775 9.5275 -7.9375 9.1875 Z M2.0625 10.1875 C2.0625 10.8475 2.0625 11.5075 2.0625 12.1875 C3.3825 11.8575 4.7025 11.5275 6.0625 11.1875 C6.0625 10.5275 6.0625 9.8675 6.0625 9.1875 C3.9879644 9.0384288 3.9879644 9.0384288 2.0625 10.1875 Z M8.0625 10.1875 C9.0625 12.1875 9.0625 12.1875 9.0625 12.1875 Z M-3.9375 15.1875 C-4.2675 15.8475 -4.5975 16.5075 -4.9375 17.1875 C-5.9275 17.1875 -6.9175 17.1875 -7.9375 17.1875 C-7.9375 17.8475 -7.9375 18.5075 -7.9375 19.1875 C-5.2975 19.1875 -2.6575 19.1875 0.0625 19.1875 C0.0625 17.8675 0.0625 16.5475 0.0625 15.1875 C-1.2575 15.1875 -2.5775 15.1875 -3.9375 15.1875 Z M7.0625 15.1875 C6.4025 16.5075 5.7425 17.8275 5.0625 19.1875 C6.3825 18.5275 7.7025 17.8675 9.0625 17.1875 C9.0625 16.5275 9.0625 15.8675 9.0625 15.1875 C8.4025 15.1875 7.7425 15.1875 7.0625 15.1875 Z M9.0625 19.1875 C9.0625 20.1775 9.0625 21.1675 9.0625 22.1875 C9.7225 21.1975 10.3825 20.2075 11.0625 19.1875 C10.4025 19.1875 9.7425 19.1875 9.0625 19.1875 Z " fill="#000000" transform="translate(9.9375,-0.1875)"/>
</svg>
